{"title":"Count Basie at Carnegie Hall (1981)","uid":8511761,"size":2199744524,"categoryP":"video","categoryS":"music_videos","magnet":"?xt=urn:btih:c825aab1378724be8c97537d0e017ab3f94fbb91&amp;dn=Count+Basie+at+Carnegie+Hall+%281981%29&amp;tr=udp%3A%2F%2Ftracker.openbittorrent.com%3A80&amp;tr=udp%3A%2F%2Fopen.demonii.com%3A1337&amp;tr=udp%3A%2F%2Ftracker.coppersurfer.tk%3A6969&amp;tr=udp%3A%2F%2Fexodus.desync.com%3A6969","seeders":4,"leechers":0,"uploader":null,"files":1,"time":1369597569,"description":"Jazz legend Count Basie and His Orchestra performs a concert at New York's Carnegie Hall, with guests Sarah Vaughn, Tony Bennett and George Benson.\n\n\nFormat                           : Matroska\nFormat version                   : Version 2\nFile size                        : 2.05 GiB\nDuration                         : 1h 46mn\nOverall bit rate                 : 2 763 Kbps\nEncoded date                     : UTC 2013-05-26 18:28:40\nWriting application              : mkvmerge v6.1.0 ('Old Devil') built on Mar  2 2013 14:32:37\nWriting library                  : libebml v1.3.0 + libmatroska v1.4.0\n\nVideo\nID                               : 1\nFormat                           : AVC\nFormat/Info                      : Advanced Video Codec\nFormat profile                   : &lt;a class=&quot;__cf_email__&quot; href=&quot;/cdn-cgi/l/email-protection&quot; data-cfemail=&quot;85cdece2edc5c9b6abb5&quot;&gt;[email&amp;#160;protected]&lt;/a&gt;&lt;script cf-hash='f9e31' type=&quot;text/javascript&quot;&gt;\n/* &lt;![CDATA[ */!function(){try{var t=&quot;currentScript&quot;in document?document.currentScript:function(){for(var t=document.getElementsByTagName(&quot;script&quot;),e=t.length;e--;)if(t[e].getAttribute(&quot;cf-hash&quot;))return t[e]}();if(t&amp;&amp;t.previousSibling){var e,r,n,i,c=t.previousSibling,a=c.getAttribute(&quot;data-cfemail&quot;);if(a){for(e=&quot;&quot;,r=parseInt(a.substr(0,2),16),n=2;a.length-n;n+=2)i=parseInt(a.substr(n,2),16)^r,e+=String.fromCharCode(i);e=document.createTextNode(e),c.parentNode.replaceChild(e,c)}}}catch(u){}}();/* ]]&gt; */&lt;/script&gt;\nFormat settings, CABAC           : Yes\nFormat settings, ReFrames        : 4 frames\nFormat settings, GOP             : M=1, N=10\nCodec ID                         : V_MPEG4/ISO/AVC\nDuration                         : 1h 46mn\nBit rate                         : 2 313 Kbps\nWidth                            : 640 pixels\nHeight                           : 480 pixels\nDisplay aspect ratio             : 4:3\nFrame rate                       : 29.970 fps\nColor space                      : YUV\nChroma subsampling               : 4:2:0\nBit depth                        : 8 bits\nScan type                        : Progressive\nBits/(Pixel*Frame)               : 0.251\nStream size                      : 1.68 GiB (82%)\nWriting library                  : x264 core 130 r2273 b3065e6\n\nAudio\nID                               : 2\nFormat                           : AC-3\nFormat/Info                      : Audio Coding 3\nMode extension                   : CM (complete main)\nCodec ID                         : A_AC3\nDuration                         : 1h 46mn\nBit rate mode                    : Constant\nBit rate                         : 448 Kbps\nChannel(s)                       : 2 channels\nChannel positions                : Front: L R\nSampling rate                    : 48.0 KHz\nBit depth                        : 16 bits\nCompression mode                 : Lossy\nStream size                      : 340 MiB (16%)\n","torrent":{"xt":"urn:btih:c825aab1378724be8c97537d0e017ab3f94fbb91","amp;dn":"Count+Basie+at+Carnegie+Hall+%281981%29","amp;tr":["udp%3A%2F%2Ftracker.openbittorrent.com%3A80","udp%3A%2F%2Fopen.demonii.com%3A1337","udp%3A%2F%2Ftracker.coppersurfer.tk%3A6969","udp%3A%2F%2Fexodus.desync.com%3A6969"],"infoHash":"c825aab1378724be8c97537d0e017ab3f94fbb91","infoHashBuffer":{"type":"Buffer","data":[200,37,170,177,55,135,36,190,140,151,83,125,14,1,122,179,249,79,187,145]},"announce":[],"urlList":[]}}